<svg id="_0016_files_and_folder" xmlns="http://www.w3.org/2000/svg" viewBox="0 0 500 500" data-imageid="files-and-folder-90" imageName="Files and Folder" class="illustrations_image" style="width: 179px;"><defs><style>.cls-1_files-and-folder-90{opacity:.45;}.cls-1_files-and-folder-90,.cls-2_files-and-folder-90{fill:#e6e6e6;}.cls-3_files-and-folder-90{opacity:.12;}.cls-3_files-and-folder-90,.cls-4_files-and-folder-90,.cls-5_files-and-folder-90{fill:#fff;}.cls-6_files-and-folder-90{fill:#f4a28c;}.cls-7_files-and-folder-90{fill:#a5a5a5;}.cls-4_files-and-folder-90{opacity:.61;}.cls-8_files-and-folder-90{fill:#ce8172;opacity:.31;}.cls-9_files-and-folder-90{opacity:.58;}.cls-9_files-and-folder-90,.cls-10_files-and-folder-90,.cls-11_files-and-folder-90{fill:#68e1fd;}.cls-5_files-and-folder-90{opacity:.2;}.cls-12_files-and-folder-90{opacity:.02;}.cls-12_files-and-folder-90,.cls-13_files-and-folder-90{fill:#000001;}.cls-14_files-and-folder-90{fill:#24285b;}.cls-13_files-and-folder-90{opacity:.08;}.cls-10_files-and-folder-90{opacity:.73;}.cls-15_files-and-folder-90{fill:#ffd200;}</style></defs><g id="coffee"><path class="cls-11_files-and-folder-90" d="m209.15,234.63h-13.73v-5.48h13.73c3.77,0,6.83-3.06,6.83-6.83s-3.06-6.83-6.83-6.83h-13.73v-5.48h13.73c6.79,0,12.32,5.52,12.32,12.32s-5.52,12.32-12.32,12.32Z"/><path class="cls-4_files-and-folder-90" d="m209.15,234.63h-13.73v-5.48h13.73c3.77,0,6.83-3.06,6.83-6.83s-3.06-6.83-6.83-6.83h-13.73v-5.48h13.73c6.79,0,12.32,5.52,12.32,12.32s-5.52,12.32-12.32,12.32Z"/><rect class="cls-11_files-and-folder-90" x="170.74" y="204.03" width="33.56" height="36.56"/><path class="cls-1_files-and-folder-90" d="m195.42,204.03s23.62-15.16,0-36.36c-23.62-21.19-32.89,27.82-50.11-5.3-17.22-33.11,26.49-68.88-21.86-71.53-48.35-2.65-18.1-33.2-59.71-36.8-41.62-3.6-52.87,70.13-21.09,74.99,31.79,4.86,62.25,6.84,53.64,37.31s23.84,38.73,39.07,31.29c15.23-7.45,35.37,6.39,35.37,6.39h24.68Z"/></g><ellipse id="sd" class="cls-12_files-and-folder-90" cx="253.13" cy="442.22" rx="222.52" ry="20.76"/><g id="shelf"><rect class="cls-2_files-and-folder-90" x="80.47" y="239.87" width="123.7" height="197.07"/><rect class="cls-7_files-and-folder-90" x="134.47" y="239.87" width="107.01" height="197.07"/><rect class="cls-13_files-and-folder-90" x="134.47" y="239.87" width="107.01" height="197.07"/><polygon class="cls-15_files-and-folder-90" points="210.8 251.39 208.84 262.68 156.31 262.68 156.31 310.3 243.69 310.3 243.69 271.52 243.69 262.68 243.69 251.39 210.8 251.39"/><polygon class="cls-13_files-and-folder-90" points="210.8 251.39 208.84 262.68 156.31 262.68 156.31 310.3 243.69 310.3 243.69 271.52 243.69 262.68 243.69 251.39 210.8 251.39"/><polygon class="cls-15_files-and-folder-90" points="223.57 251.39 221.6 262.68 169.08 262.68 169.08 310.3 256.46 310.3 256.46 271.52 256.46 262.68 256.46 251.39 223.57 251.39"/><polygon class="cls-15_files-and-folder-90" points="234.12 251.39 232.16 262.68 179.63 262.68 179.63 310.3 267.01 310.3 267.01 271.52 267.01 262.68 267.01 251.39 234.12 251.39"/><polygon class="cls-13_files-and-folder-90" points="234.12 251.39 232.16 262.68 179.63 262.68 179.63 310.3 267.01 310.3 267.01 271.52 267.01 262.68 267.01 251.39 234.12 251.39"/><rect class="cls-14_files-and-folder-90" x="181.84" y="242.18" width="82.96" height="56.43" transform="translate(-36.62 34.99) rotate(-8.28)"/><rect class="cls-3_files-and-folder-90" x="181.84" y="242.18" width="82.96" height="56.43" transform="translate(-36.62 34.99) rotate(-8.28)"/><rect class="cls-14_files-and-folder-90" x="186.14" y="234.19" width="82.96" height="56.43" transform="translate(-35.43 35.53) rotate(-8.28)"/><polygon class="cls-15_files-and-folder-90" points="246.88 251.39 244.92 262.68 192.4 262.68 192.4 310.3 279.77 310.3 279.77 271.52 279.77 262.68 279.77 251.39 246.88 251.39"/><rect class="cls-7_files-and-folder-90" x="151.41" y="276.92" width="137.7" height="53.75"/><rect class="cls-2_files-and-folder-90" x="194.85" y="276.92" width="94.25" height="53.75"/><rect class="cls-2_files-and-folder-90" x="151.41" y="355.53" width="109.03" height="53.75"/><circle class="cls-7_files-and-folder-90" cx="243.63" cy="301.65" r="7.55"/><circle class="cls-7_files-and-folder-90" cx="207.55" cy="380.26" r="7.55"/><path class="cls-9_files-and-folder-90" d="m59.73,409.17s-21.88-5.88-26.72-26.2c0,0,33.83-6.99,34.94,27.96l-8.23-1.76Z"/><path class="cls-10_files-and-folder-90" d="m62.4,406.99s-15.37-24.08-2.03-46.7c0,0,25.82,16.24,14.5,46.7h-12.48Z"/><path class="cls-11_files-and-folder-90" d="m66.33,406.99s7.96-25.53,32.33-30.46c0,0,4.64,16.53-15.66,30.46h-16.66Z"/><polygon class="cls-14_files-and-folder-90" points="50.48 406.49 55.04 436.78 82.94 436.78 86.93 406.49 50.48 406.49"/></g><g id="person"><path class="cls-11_files-and-folder-90" d="m412.07,138.83c-2.52,38.92-21.1,135.99-146.74,81.4l4.32-12.83s62.09,10.96,78.5-12.07c13.91-19.51,13.68-83.48,44.34-80.43,11.86,1.18,20.34,12.04,19.57,23.93Z"/><path class="cls-13_files-and-folder-90" d="m412.07,138.83c-2.52,38.92-21.1,135.99-146.74,81.4l4.32-12.83s62.09,10.96,78.5-12.07c13.91-19.51,13.68-83.48,44.34-80.43,11.86,1.18,20.34,12.04,19.57,23.93Z"/><path class="cls-6_files-and-folder-90" d="m296.43,66.33s2.55,14.02,7.34,22.5c1.94,3.44,6.38,4.67,9.79,2.68,4.24-2.47,9.25-7.05,8.79-14.73l.83-13.13s.23-8.24-9.04-11.7c-9.27-3.46-19.69,5.92-17.71,14.38Z"/><polygon class="cls-6_files-and-folder-90" points="323.34 67.9 350.99 95.83 334.47 113.76 317.14 80.39 323.34 67.9"/><path class="cls-6_files-and-folder-90" d="m314.25,74.11s-1.34-5.32,2.75-6c4.09-.68,6.07,7,.86,9.19l-3.61-3.19Z"/><path class="cls-6_files-and-folder-90" d="m298.49,75.08l-2.38,6.34c-.59,1.57.65,3.21,2.32,3.08l5.53-.45-5.46-8.97Z"/><path class="cls-11_files-and-folder-90" d="m368.58,421.78s-3.67,6.75-10.22,6.31c-6.54-.45-9.21,5.61-3.65,8.15,5.56,2.54,21.69-2.62,21.69-2.62l1.01-9.39-8.83-2.45Z"/><path class="cls-11_files-and-folder-90" d="m446.42,413.2s4.14,6.48.59,11.99c-3.55,5.51.47,10.77,5.37,7.13,4.91-3.64,8.17-20.26,8.17-20.26l-7.73-5.42-6.4,6.56Z"/><path class="cls-8_files-and-folder-90" d="m319.93,85.76s2.19-4.71,2.42-8.98c0,0,10.66,9.89,3.55,20.47l-5.97-11.49Z"/><polygon class="cls-14_files-and-folder-90" points="365.34 276.88 364.56 424.83 383.69 424.83 408.19 274.98 365.34 276.88"/><path class="cls-11_files-and-folder-90" d="m337.55,103.44s13.88-12.19,33.82-12.39c19.94-.2,75.58,3.22,71.78,71.28-2.82,50.42-4.27,106.21-4.27,106.21l-73.25,12.21s-87.51-123.82-28.08-177.31Z"/><path class="cls-13_files-and-folder-90" d="m385.96,120.55s-15.35,18.38-5.86,52.24c9.48,33.87,22.85,74.49-22.9,94.97l8.43,12.99,73.25-12.21.97-31.19,11.76-57.74-65.65-59.06Z"/><polygon class="cls-15_files-and-folder-90" points="364.46 185.85 368.03 199.17 319.76 219.88 342.46 272.8 422.77 238.36 404.28 195.25 400.06 185.43 394.68 172.88 364.46 185.85"/><polygon class="cls-13_files-and-folder-90" points="364.46 185.85 368.03 199.17 319.76 219.88 342.46 272.8 422.77 238.36 404.28 195.25 400.06 185.43 394.68 172.88 364.46 185.85"/><polygon class="cls-15_files-and-folder-90" points="376.19 180.82 379.76 194.14 331.49 214.85 354.19 267.77 434.5 233.33 416.01 190.22 411.79 180.4 406.41 167.85 376.19 180.82"/><path class="cls-13_files-and-folder-90" d="m416.45,191.26s-11.94,15.67-25.79,30.05c-6.9,7.17-14.91,13.13-23.39,18.33-4.97,3.05-10.2,8.48-6.7,16.97h27.37l35.75-48.49-7.23-16.86Z"/><path class="cls-6_files-and-folder-90" d="m268.87,209.74s-7.06-.58-15.25,2.3-15.76,10.17-9.92,18.7c4.5,6.58,10.89,3.18,13.27-2.08,2.38-5.26,3.84-10.36,8.37-8.44l3.53-10.49Z"/><path class="cls-11_files-and-folder-90" d="m411.57,99.88c17.94,6.99,40.28,21.2,53.5,50.02,9.02,19.66,8.71,42.58-2.03,61.36-10.84,18.95-33.06,40.21-78.63,49.41l-5.31-13.33,43.52-38.22c9.78-8.59,10.3-23.68,1.06-32.86-12.93-12.86-29.37-31.96-36.77-52.02-5.65-15.3,9.45-30.28,24.65-24.36Z"/><path class="cls-5_files-and-folder-90" d="m411.57,99.88c17.94,6.99,40.28,21.2,53.5,50.02,9.02,19.66,8.71,42.58-2.03,61.36-10.84,18.95-33.06,40.21-78.63,49.41l-5.31-13.33,43.52-38.22c9.78-8.59,10.3-23.68,1.06-32.86-12.93-12.86-29.37-31.96-36.77-52.02-5.65-15.3,9.45-30.28,24.65-24.36Z"/><path class="cls-6_files-and-folder-90" d="m380.1,249.83s-20.38-2.22-22.23,5.48c-1.85,7.7-3.12,12.46-3.12,12.46,0,0,14.13.5,28.94-8.9l-3.6-9.03Z"/><path class="cls-14_files-and-folder-90" d="m438.88,268.54s1.15,9.25.33,28.42c-.5,11.65-3.52,31.07-5.82,44.5-1.66,9.71.07,19.68,4.9,28.27l18.46,32.85-13.42,13.37-22-28.59c-11.22-14.67-18.91-31.74-22.46-49.87l-7-35.73-17.64-22.44,64.65-10.78Z"/><path class="cls-14_files-and-folder-90" d="m288.29,49.65s-5.69,13.19,7.93,13.83,13.46-2.13,13.46-2.13c0,0,.85,17.62,12.66,15.43l4.89-4.94s5.59-22.5-4.05-27.42c0,0-19.19-19.7-34.89,5.23Z"/><path class="cls-6_files-and-folder-90" d="m314.04,76.23s.7-11.48,7.18-8.62c6.48,2.86,2.2,15.39-7.18,8.62Z"/></g></svg>